<svg xmlns="http://www.w3.org/2000/svg" xmlns:xlink="http://www.w3.org/1999/xlink" width="135" zoomAndPan="magnify" viewBox="0 0 101.25 38.249999" height="51" preserveAspectRatio="xMidYMid meet" version="1.0"><defs><g/><clipPath id="ff8bf4e14e"><path d="M 4.355469 13 L 29 13 L 29 36.316406 L 4.355469 36.316406 Z M 4.355469 13 " clip-rule="nonzero"/></clipPath><clipPath id="4f49b3c171"><path d="M 15 1.195312 L 39.480469 1.195312 L 39.480469 21 L 15 21 Z M 15 1.195312 " clip-rule="nonzero"/></clipPath></defs><g clip-path="url(#ff8bf4e14e)"><path fill="#ffffff" d="M 26.808594 28.242188 C 26.296875 27.730469 25.828125 27.1875 25.398438 26.609375 L 25.398438 29.972656 C 25.40625 30.453125 25.324219 30.917969 25.148438 31.363281 C 24.96875 31.808594 24.714844 32.203125 24.378906 32.546875 C 24.042969 32.890625 23.652344 33.152344 23.210938 33.339844 C 22.769531 33.523438 22.308594 33.617188 21.828125 33.617188 C 21.347656 33.617188 20.886719 33.523438 20.445312 33.339844 C 20 33.152344 19.613281 32.890625 19.277344 32.546875 C 18.941406 32.203125 18.683594 31.808594 18.507812 31.363281 C 18.328125 30.917969 18.246094 30.453125 18.257812 29.972656 L 18.257812 22.234375 L 10.519531 22.234375 C 10.140625 22.234375 9.773438 22.175781 9.414062 22.058594 C 9.054688 21.941406 8.722656 21.773438 8.417969 21.550781 C 8.113281 21.328125 7.847656 21.0625 7.628906 20.757812 C 7.40625 20.453125 7.238281 20.121094 7.121094 19.761719 C 7.003906 19.398438 6.949219 19.03125 6.949219 18.652344 C 6.949219 18.277344 7.011719 17.90625 7.128906 17.550781 C 7.246094 17.191406 7.417969 16.859375 7.640625 16.554688 C 7.863281 16.25 8.128906 15.988281 8.4375 15.765625 L 8.707031 15.574219 C 8.359375 15.28125 8.035156 14.964844 7.734375 14.625 C 7.414062 14.261719 7.117188 13.886719 6.839844 13.492188 L 6.707031 13.589844 C 6.175781 13.988281 5.71875 14.460938 5.332031 15.003906 C 4.949219 15.550781 4.660156 16.140625 4.460938 16.773438 C 4.261719 17.410156 4.167969 18.0625 4.171875 18.726562 C 4.179688 19.394531 4.289062 20.042969 4.5 20.671875 C 4.710938 21.304688 5.011719 21.890625 5.40625 22.425781 C 5.800781 22.960938 6.269531 23.425781 6.808594 23.816406 C 7.351562 24.203125 7.9375 24.5 8.570312 24.707031 C 9.203125 24.910156 9.855469 25.011719 10.519531 25.011719 L 15.476562 25.011719 L 15.476562 29.96875 C 15.472656 30.390625 15.507812 30.804688 15.582031 31.21875 C 15.660156 31.632812 15.777344 32.035156 15.933594 32.425781 C 16.089844 32.816406 16.285156 33.191406 16.515625 33.542969 C 16.746094 33.894531 17.007812 34.21875 17.304688 34.519531 C 17.597656 34.820312 17.921875 35.085938 18.269531 35.324219 C 18.617188 35.558594 18.988281 35.757812 19.375 35.921875 C 19.761719 36.082031 20.164062 36.207031 20.578125 36.289062 C 20.988281 36.371094 21.40625 36.414062 21.828125 36.414062 C 22.25 36.414062 22.664062 36.371094 23.078125 36.289062 C 23.492188 36.207031 23.890625 36.082031 24.277344 35.921875 C 24.667969 35.757812 25.035156 35.558594 25.382812 35.324219 C 25.734375 35.085938 26.054688 34.820312 26.351562 34.519531 C 26.644531 34.21875 26.910156 33.894531 27.140625 33.542969 C 27.371094 33.191406 27.5625 32.816406 27.71875 32.425781 C 27.878906 32.035156 27.992188 31.632812 28.070312 31.21875 C 28.148438 30.804688 28.183594 30.390625 28.175781 29.96875 L 28.175781 29.398438 C 27.6875 29.050781 27.230469 28.664062 26.808594 28.242188 Z M 26.808594 28.242188 " fill-opacity="1" fill-rule="nonzero"/></g><g clip-path="url(#4f49b3c171)"><path fill="#ffffff" d="M 16.078125 13.539062 C 15.867188 14.03125 15.574219 14.472656 15.199219 14.855469 L 15.292969 15.066406 L 15.292969 15.085938 L 18.257812 15.085938 L 18.257812 7.355469 C 18.265625 6.890625 18.363281 6.441406 18.546875 6.011719 C 18.734375 5.582031 18.992188 5.203125 19.328125 4.878906 C 19.660156 4.550781 20.042969 4.296875 20.476562 4.121094 C 20.910156 3.945312 21.359375 3.855469 21.828125 3.855469 C 22.292969 3.855469 22.746094 3.945312 23.175781 4.121094 C 23.609375 4.296875 23.992188 4.550781 24.328125 4.878906 C 24.660156 5.203125 24.921875 5.582031 25.105469 6.011719 C 25.292969 6.441406 25.390625 6.890625 25.398438 7.355469 L 25.398438 15.09375 L 26.726562 15.09375 C 27.167969 14.878906 27.636719 14.769531 28.128906 14.769531 C 28.621094 14.769531 29.085938 14.878906 29.53125 15.09375 L 33.132812 15.09375 C 33.605469 15.09375 34.058594 15.183594 34.496094 15.367188 C 34.933594 15.546875 35.320312 15.804688 35.65625 16.140625 C 35.988281 16.472656 36.246094 16.859375 36.429688 17.296875 C 36.609375 17.734375 36.703125 18.191406 36.703125 18.664062 C 36.703125 18.878906 36.683594 19.097656 36.640625 19.308594 C 37.648438 19.511719 38.496094 19.90625 38.992188 20.789062 C 39.019531 20.835938 39.042969 20.882812 39.066406 20.9375 L 39.160156 20.65625 C 39.316406 20.179688 39.417969 19.691406 39.457031 19.1875 C 39.5 18.6875 39.480469 18.191406 39.40625 17.695312 C 39.328125 17.199219 39.195312 16.71875 39.003906 16.253906 C 38.8125 15.789062 38.570312 15.351562 38.277344 14.945312 C 37.980469 14.539062 37.644531 14.171875 37.261719 13.84375 C 36.878906 13.519531 36.464844 13.242188 36.019531 13.011719 C 35.570312 12.785156 35.105469 12.609375 34.617188 12.492188 C 34.128906 12.375 33.632812 12.316406 33.128906 12.316406 L 28.175781 12.316406 L 28.175781 7.355469 C 28.167969 6.945312 28.125 6.535156 28.039062 6.132812 C 27.953125 5.726562 27.828125 5.335938 27.664062 4.957031 C 27.503906 4.578125 27.304688 4.214844 27.074219 3.875 C 26.839844 3.535156 26.578125 3.21875 26.28125 2.929688 C 25.988281 2.640625 25.667969 2.378906 25.324219 2.152344 C 24.980469 1.925781 24.617188 1.734375 24.234375 1.578125 C 23.851562 1.421875 23.460938 1.300781 23.054688 1.222656 C 22.648438 1.144531 22.238281 1.101562 21.828125 1.101562 C 21.414062 1.101562 21.003906 1.144531 20.601562 1.222656 C 20.195312 1.300781 19.800781 1.421875 19.417969 1.578125 C 19.039062 1.734375 18.675781 1.925781 18.328125 2.152344 C 17.984375 2.378906 17.664062 2.640625 17.371094 2.929688 C 17.078125 3.21875 16.8125 3.535156 16.582031 3.875 C 16.347656 4.214844 16.152344 4.578125 15.988281 4.957031 C 15.828125 5.335938 15.703125 5.726562 15.617188 6.132812 C 15.53125 6.535156 15.484375 6.945312 15.476562 7.355469 L 15.476562 7.472656 C 16.222656 9.292969 16.652344 12.148438 16.078125 13.539062 Z M 16.078125 13.539062 " fill-opacity="1" fill-rule="nonzero"/></g><path fill="#ffffff" d="M 6.179688 10.28125 C 6.304688 11.195312 7.234375 12.828125 8.347656 14.085938 C 8.804688 14.597656 9.484375 15.261719 10.125 15.496094 C 10.714844 15.699219 11.316406 15.753906 11.929688 15.664062 L 12.25 16.394531 C 12.351562 16.632812 12.53125 16.769531 12.785156 16.8125 L 12.816406 16.917969 L 13.152344 16.773438 C 13.1875 16.867188 13.222656 16.953125 13.257812 17.035156 C 13.484375 17.546875 13.78125 18.011719 14.148438 18.429688 C 14.800781 19.152344 15.585938 19.667969 16.507812 19.984375 C 17.8125 20.453125 18.914062 20.296875 19.882812 20.160156 C 21.546875 19.921875 22.644531 19.765625 24.152344 22.949219 C 25.023438 24.789062 26.171875 26.460938 27.382812 27.664062 C 28.824219 29.089844 30.351562 29.855469 31.804688 29.894531 C 33.964844 29.9375 35.863281 28.453125 37.445312 25.46875 C 38.519531 23.445312 38.785156 22.082031 38.28125 21.191406 C 37.660156 20.085938 36.125 20 34.347656 19.898438 C 32.992188 19.824219 31.460938 19.738281 30.25 19.167969 C 30.347656 18.996094 30.417969 18.8125 30.472656 18.625 C 30.523438 18.433594 30.550781 18.242188 30.554688 18.042969 C 30.558594 17.847656 30.535156 17.652344 30.492188 17.460938 C 30.449219 17.269531 30.382812 17.085938 30.292969 16.910156 C 30.207031 16.734375 30.097656 16.570312 29.96875 16.421875 C 29.839844 16.273438 29.695312 16.140625 29.535156 16.027344 C 29.375 15.914062 29.203125 15.820312 29.019531 15.75 C 28.835938 15.675781 28.648438 15.628906 28.453125 15.601562 C 28.257812 15.578125 28.0625 15.574219 27.867188 15.597656 C 27.671875 15.617188 27.480469 15.664062 27.296875 15.730469 C 27.113281 15.800781 26.9375 15.890625 26.777344 16 C 26.613281 16.113281 26.46875 16.242188 26.335938 16.386719 C 26.203125 16.535156 26.09375 16.695312 26 16.867188 C 25.910156 17.042969 25.839844 17.226562 25.792969 17.414062 C 25.746094 17.605469 25.71875 17.800781 25.71875 17.996094 C 25.71875 18.195312 25.746094 18.386719 25.792969 18.578125 C 25.839844 18.769531 25.910156 18.953125 26 19.125 C 26.09375 19.300781 26.203125 19.460938 26.335938 19.609375 C 26.464844 19.753906 26.613281 19.882812 26.773438 19.996094 C 26.9375 20.105469 27.113281 20.195312 27.296875 20.261719 C 27.480469 20.332031 27.671875 20.378906 27.867188 20.398438 C 28.0625 20.421875 28.257812 20.417969 28.453125 20.394531 C 28.648438 20.367188 28.835938 20.320312 29.019531 20.246094 C 29.203125 20.175781 29.375 20.082031 29.535156 19.96875 C 30.996094 20.746094 32.742188 20.847656 34.292969 20.929688 C 35.707031 21.011719 37.039062 21.085938 37.382812 21.699219 C 37.59375 22.066406 37.613281 22.933594 36.53125 24.980469 C 35.144531 27.59375 33.558594 28.902344 31.828125 28.859375 C 29.050781 28.796875 26.460938 25.398438 25.09375 22.511719 C 23.253906 18.632812 21.464844 18.890625 19.734375 19.136719 C 18.84375 19.265625 17.921875 19.398438 16.859375 19.015625 C 15.171875 18.410156 14.425781 17.265625 14.097656 16.363281 L 14.171875 16.332031 C 14.351562 16.253906 14.476562 16.121094 14.546875 15.941406 C 14.617188 15.757812 14.613281 15.578125 14.535156 15.398438 L 14.214844 14.667969 C 14.699219 14.277344 15.066406 13.796875 15.320312 13.230469 C 15.9375 11.746094 15.140625 7.964844 14.171875 6.792969 C 13.734375 6.269531 13.066406 5.96875 12.226562 5.914062 C 11.988281 5.476562 11.617188 5.253906 11.117188 5.257812 C 10.90625 5.257812 10.707031 5.308594 10.519531 5.40625 C 10.335938 5.507812 10.183594 5.648438 10.070312 5.824219 C 9.953125 6 9.886719 6.195312 9.867188 6.40625 C 9.851562 6.617188 9.882812 6.816406 9.96875 7.011719 C 10.070312 7.246094 10.230469 7.429688 10.445312 7.566406 C 10.660156 7.703125 10.894531 7.769531 11.148438 7.761719 C 11.402344 7.757812 11.636719 7.679688 11.84375 7.535156 C 12.050781 7.386719 12.203125 7.195312 12.292969 6.957031 C 12.761719 7.003906 13.117188 7.160156 13.347656 7.421875 L 13.371094 7.449219 C 13.714844 7.859375 14.089844 8.921875 14.3125 10.082031 C 14.53125 11.242188 14.550781 12.355469 14.359375 12.820312 C 14.007812 13.667969 13.042969 14.238281 12.742188 14.402344 C 12.417969 14.515625 11.347656 14.832031 10.484375 14.511719 C 10.011719 14.339844 9.21875 13.578125 8.507812 12.613281 C 7.796875 11.644531 7.28125 10.664062 7.210938 10.125 C 7.164062 9.769531 7.289062 9.394531 7.585938 9 C 7.78125 9.078125 7.980469 9.105469 8.191406 9.082031 C 8.398438 9.058594 8.589844 8.984375 8.761719 8.867188 C 8.9375 8.746094 9.070312 8.59375 9.167969 8.40625 C 9.261719 8.222656 9.308594 8.023438 9.304688 7.8125 C 9.304688 7.601562 9.25 7.40625 9.148438 7.222656 C 9.046875 7.039062 8.90625 6.890625 8.730469 6.777344 C 8.554688 6.660156 8.359375 6.597656 8.152344 6.578125 C 7.941406 6.5625 7.742188 6.597656 7.546875 6.679688 C 7.402344 6.746094 7.273438 6.832031 7.160156 6.945312 C 7.046875 7.058594 6.957031 7.1875 6.894531 7.335938 C 6.832031 7.480469 6.796875 7.632812 6.789062 7.792969 C 6.785156 7.953125 6.808594 8.109375 6.863281 8.257812 C 6.328125 8.914062 6.09375 9.609375 6.179688 10.28125 Z M 6.179688 10.28125 " fill-opacity="1" fill-rule="nonzero"/><g fill="#ffffff" fill-opacity="1"><g transform="translate(39.484205, 18.153666)"><g><path d="M 7.0625 0.203125 C 5.863281 0.203125 4.773438 -0.0546875 3.796875 -0.578125 C 2.816406 -1.109375 2.046875 -1.835938 1.484375 -2.765625 C 0.929688 -3.691406 0.65625 -4.742188 0.65625 -5.921875 C 0.65625 -7.085938 0.929688 -8.132812 1.484375 -9.0625 C 2.046875 -10 2.816406 -10.726562 3.796875 -11.25 C 4.773438 -11.769531 5.867188 -12.03125 7.078125 -12.03125 C 8.109375 -12.03125 9.035156 -11.847656 9.859375 -11.484375 C 10.691406 -11.128906 11.390625 -10.613281 11.953125 -9.9375 L 10.1875 -8.3125 C 9.394531 -9.238281 8.40625 -9.703125 7.21875 -9.703125 C 6.488281 -9.703125 5.832031 -9.539062 5.25 -9.21875 C 4.675781 -8.894531 4.226562 -8.445312 3.90625 -7.875 C 3.59375 -7.300781 3.4375 -6.648438 3.4375 -5.921875 C 3.4375 -5.179688 3.59375 -4.523438 3.90625 -3.953125 C 4.226562 -3.378906 4.675781 -2.929688 5.25 -2.609375 C 5.832031 -2.285156 6.488281 -2.125 7.21875 -2.125 C 8.40625 -2.125 9.394531 -2.59375 10.1875 -3.53125 L 11.953125 -1.90625 C 11.390625 -1.21875 10.691406 -0.691406 9.859375 -0.328125 C 9.023438 0.0234375 8.09375 0.203125 7.0625 0.203125 Z M 7.0625 0.203125 "/></g></g></g><g fill="#ffffff" fill-opacity="1"><g transform="translate(51.875901, 18.153666)"><g><path d="M 1.21875 -12.546875 L 3.859375 -12.546875 L 3.859375 0 L 1.21875 0 Z M 1.21875 -12.546875 "/></g></g></g><g fill="#ffffff" fill-opacity="1"><g transform="translate(56.964444, 18.153666)"><g><path d="M 1.21875 -9.09375 L 3.859375 -9.09375 L 3.859375 0 L 1.21875 0 Z M 2.53125 -10.359375 C 2.050781 -10.359375 1.65625 -10.5 1.34375 -10.78125 C 1.039062 -11.0625 0.890625 -11.410156 0.890625 -11.828125 C 0.890625 -12.242188 1.039062 -12.59375 1.34375 -12.875 C 1.65625 -13.164062 2.050781 -13.3125 2.53125 -13.3125 C 3.019531 -13.3125 3.414062 -13.175781 3.71875 -12.90625 C 4.019531 -12.632812 4.171875 -12.296875 4.171875 -11.890625 C 4.171875 -11.441406 4.019531 -11.070312 3.71875 -10.78125 C 3.414062 -10.5 3.019531 -10.359375 2.53125 -10.359375 Z M 2.53125 -10.359375 "/></g></g></g><g fill="#ffffff" fill-opacity="1"><g transform="translate(62.052986, 18.153666)"><g><path d="M 5.609375 0.140625 C 4.640625 0.140625 3.769531 -0.0546875 3 -0.453125 C 2.226562 -0.859375 1.625 -1.414062 1.1875 -2.125 C 0.757812 -2.832031 0.546875 -3.640625 0.546875 -4.546875 C 0.546875 -5.453125 0.757812 -6.257812 1.1875 -6.96875 C 1.625 -7.675781 2.226562 -8.226562 3 -8.625 C 3.769531 -9.03125 4.640625 -9.234375 5.609375 -9.234375 C 6.566406 -9.234375 7.40625 -9.03125 8.125 -8.625 C 8.84375 -8.226562 9.363281 -7.660156 9.6875 -6.921875 L 7.640625 -5.8125 C 7.171875 -6.644531 6.488281 -7.0625 5.59375 -7.0625 C 4.90625 -7.0625 4.335938 -6.835938 3.890625 -6.390625 C 3.441406 -5.941406 3.21875 -5.328125 3.21875 -4.546875 C 3.21875 -3.765625 3.441406 -3.148438 3.890625 -2.703125 C 4.335938 -2.253906 4.90625 -2.03125 5.59375 -2.03125 C 6.5 -2.03125 7.179688 -2.445312 7.640625 -3.28125 L 9.6875 -2.15625 C 9.363281 -1.4375 8.84375 -0.875 8.125 -0.46875 C 7.40625 -0.0625 6.566406 0.140625 5.609375 0.140625 Z M 5.609375 0.140625 "/></g></g></g><g fill="#ffffff" fill-opacity="1"><g transform="translate(72.044108, 18.153666)"><g><path d="M 5.125 -3.5625 L 3.859375 -2.3125 L 3.859375 0 L 1.21875 0 L 1.21875 -12.546875 L 3.859375 -12.546875 L 3.859375 -5.4375 L 7.703125 -9.09375 L 10.859375 -9.09375 L 7.0625 -5.234375 L 11.1875 0 L 8 0 Z M 5.125 -3.5625 "/></g></g></g><g fill="#ffffff" fill-opacity="1"><g transform="translate(39.484205, 30.828026)"><g><path d="M 12.25 -11.828125 L 12.25 0 L 9.515625 0 L 9.515625 -4.859375 L 4.140625 -4.859375 L 4.140625 0 L 1.40625 0 L 1.40625 -11.828125 L 4.140625 -11.828125 L 4.140625 -7.171875 L 9.515625 -7.171875 L 9.515625 -11.828125 Z M 12.25 -11.828125 "/></g></g></g><g fill="#ffffff" fill-opacity="1"><g transform="translate(53.14381, 30.828026)"><g><path d="M 10.125 -4.515625 C 10.125 -4.484375 10.109375 -4.242188 10.078125 -3.796875 L 3.1875 -3.796875 C 3.3125 -3.234375 3.601562 -2.789062 4.0625 -2.46875 C 4.53125 -2.144531 5.109375 -1.984375 5.796875 -1.984375 C 6.273438 -1.984375 6.695312 -2.050781 7.0625 -2.1875 C 7.425781 -2.332031 7.765625 -2.554688 8.078125 -2.859375 L 9.484375 -1.328125 C 8.628906 -0.347656 7.378906 0.140625 5.734375 0.140625 C 4.703125 0.140625 3.789062 -0.0546875 3 -0.453125 C 2.21875 -0.859375 1.613281 -1.414062 1.1875 -2.125 C 0.757812 -2.832031 0.546875 -3.640625 0.546875 -4.546875 C 0.546875 -5.441406 0.753906 -6.242188 1.171875 -6.953125 C 1.597656 -7.671875 2.179688 -8.226562 2.921875 -8.625 C 3.660156 -9.03125 4.484375 -9.234375 5.390625 -9.234375 C 6.285156 -9.234375 7.09375 -9.039062 7.8125 -8.65625 C 8.53125 -8.269531 9.09375 -7.71875 9.5 -7 C 9.914062 -6.289062 10.125 -5.460938 10.125 -4.515625 Z M 5.40625 -7.234375 C 4.8125 -7.234375 4.3125 -7.0625 3.90625 -6.71875 C 3.5 -6.382812 3.25 -5.925781 3.15625 -5.34375 L 7.640625 -5.34375 C 7.546875 -5.914062 7.296875 -6.375 6.890625 -6.71875 C 6.492188 -7.0625 6 -7.234375 5.40625 -7.234375 Z M 5.40625 -7.234375 "/></g></g></g><g fill="#ffffff" fill-opacity="1"><g transform="translate(63.81115, 30.828026)"><g><path d="M 4.890625 -9.234375 C 6.296875 -9.234375 7.375 -8.894531 8.125 -8.21875 C 8.882812 -7.550781 9.265625 -6.539062 9.265625 -5.1875 L 9.265625 0 L 6.796875 0 L 6.796875 -1.125 C 6.296875 -0.28125 5.375 0.140625 4.03125 0.140625 C 3.320312 0.140625 2.710938 0.0195312 2.203125 -0.21875 C 1.691406 -0.457031 1.300781 -0.785156 1.03125 -1.203125 C 0.757812 -1.617188 0.625 -2.09375 0.625 -2.625 C 0.625 -3.46875 0.941406 -4.128906 1.578125 -4.609375 C 2.210938 -5.097656 3.195312 -5.34375 4.53125 -5.34375 L 6.625 -5.34375 C 6.625 -5.914062 6.445312 -6.359375 6.09375 -6.671875 C 5.75 -6.984375 5.226562 -7.140625 4.53125 -7.140625 C 4.039062 -7.140625 3.5625 -7.0625 3.09375 -6.90625 C 2.632812 -6.75 2.238281 -6.546875 1.90625 -6.296875 L 0.96875 -8.125 C 1.457031 -8.476562 2.046875 -8.75 2.734375 -8.9375 C 3.429688 -9.132812 4.148438 -9.234375 4.890625 -9.234375 Z M 4.6875 -1.640625 C 5.132812 -1.640625 5.53125 -1.742188 5.875 -1.953125 C 6.226562 -2.160156 6.476562 -2.46875 6.625 -2.875 L 6.625 -3.796875 L 4.8125 -3.796875 C 3.726562 -3.796875 3.1875 -3.441406 3.1875 -2.734375 C 3.1875 -2.398438 3.316406 -2.132812 3.578125 -1.9375 C 3.847656 -1.738281 4.21875 -1.640625 4.6875 -1.640625 Z M 4.6875 -1.640625 "/></g></g></g><g fill="#ffffff" fill-opacity="1"><g transform="translate(74.241813, 30.828026)"><g><path d="M 1.21875 -12.546875 L 3.859375 -12.546875 L 3.859375 0 L 1.21875 0 Z M 1.21875 -12.546875 "/></g></g></g><g fill="#ffffff" fill-opacity="1"><g transform="translate(79.330356, 30.828026)"><g><path d="M 7.078125 -0.4375 C 6.816406 -0.25 6.5 -0.101562 6.125 0 C 5.75 0.09375 5.351562 0.140625 4.9375 0.140625 C 3.851562 0.140625 3.015625 -0.132812 2.421875 -0.6875 C 1.828125 -1.238281 1.53125 -2.050781 1.53125 -3.125 L 1.53125 -6.859375 L 0.140625 -6.859375 L 0.140625 -8.890625 L 1.53125 -8.890625 L 1.53125 -11.109375 L 4.171875 -11.109375 L 4.171875 -8.890625 L 6.4375 -8.890625 L 6.4375 -6.859375 L 4.171875 -6.859375 L 4.171875 -3.15625 C 4.171875 -2.78125 4.269531 -2.488281 4.46875 -2.28125 C 4.664062 -2.070312 4.945312 -1.96875 5.3125 -1.96875 C 5.726562 -1.96875 6.082031 -2.078125 6.375 -2.296875 Z M 7.078125 -0.4375 "/></g></g></g><g fill="#ffffff" fill-opacity="1"><g transform="translate(86.684228, 30.828026)"><g><path d="M 6.75 -9.234375 C 7.875 -9.234375 8.78125 -8.894531 9.46875 -8.21875 C 10.164062 -7.539062 10.515625 -6.535156 10.515625 -5.203125 L 10.515625 0 L 7.875 0 L 7.875 -4.796875 C 7.875 -5.523438 7.71875 -6.066406 7.40625 -6.421875 C 7.09375 -6.773438 6.632812 -6.953125 6.03125 -6.953125 C 5.363281 -6.953125 4.832031 -6.742188 4.4375 -6.328125 C 4.050781 -5.921875 3.859375 -5.3125 3.859375 -4.5 L 3.859375 0 L 1.21875 0 L 1.21875 -12.546875 L 3.859375 -12.546875 L 3.859375 -8.15625 C 4.203125 -8.5 4.617188 -8.765625 5.109375 -8.953125 C 5.609375 -9.140625 6.15625 -9.234375 6.75 -9.234375 Z M 6.75 -9.234375 "/></g></g></g></svg>